<svg width="130" height="40" viewBox="0 0 130 40" fill="none" xmlns="http://www.w3.org/2000/svg">
<path d="M50.5953 27.5L50.6122 14.656H52.843V27.5H50.5953Z" fill="#FAF4E6"/>
<path d="M8.54944 25.069C7.81711 25.069 7.21434 24.9733 6.74114 24.7817C6.26794 24.5789 5.89051 24.3311 5.60884 24.0381C5.33844 23.7339 5.13564 23.4354 5.00044 23.1424C4.86524 22.8495 4.77511 22.6073 4.73004 22.4157C4.69624 22.2129 4.67934 22.1115 4.67934 22.1115H6.80874C6.80874 22.1115 6.82564 22.1735 6.85944 22.2974C6.90451 22.4214 6.98337 22.5678 7.09604 22.7368C7.21997 22.8946 7.40587 23.0354 7.65374 23.1593C7.90161 23.2833 8.22834 23.3452 8.63394 23.3452C9.11841 23.3452 9.46767 23.2438 9.68174 23.041C9.89581 22.827 10.0028 22.5904 10.0028 22.3312C10.0028 22.0834 9.90707 21.8862 9.71554 21.7397C9.53527 21.582 9.26487 21.4637 8.90434 21.3848L7.67064 21.1313C7.17491 21.0299 6.71297 20.8835 6.28484 20.6919C5.85671 20.4891 5.50744 20.2187 5.23704 19.8807C4.96664 19.5315 4.83144 19.0864 4.83144 18.5456C4.83144 17.7457 5.13564 17.0866 5.74404 16.5683C6.35244 16.0388 7.18054 15.774 8.22834 15.774C8.89307 15.774 9.43951 15.8642 9.86764 16.0444C10.307 16.2247 10.6563 16.45 10.9154 16.7204C11.1858 16.9908 11.383 17.2612 11.5069 17.5316C11.6421 17.802 11.7266 18.033 11.7604 18.2245C11.8055 18.4048 11.828 18.4949 11.828 18.4949H9.76624C9.76624 18.4949 9.74934 18.4442 9.71554 18.3428C9.68174 18.2302 9.60851 18.1062 9.49584 17.971C9.39444 17.8358 9.23671 17.7175 9.02264 17.6161C8.81984 17.5035 8.54381 17.4471 8.19454 17.4471C7.72134 17.4471 7.38334 17.5485 7.18054 17.7513C6.98901 17.9541 6.89324 18.1682 6.89324 18.3935C6.89324 18.6414 7.00027 18.8329 7.21434 18.9681C7.42841 19.1033 7.70444 19.2047 8.04244 19.2723L9.20854 19.5258C10.0423 19.6948 10.7239 19.9878 11.2534 20.4046C11.7942 20.8215 12.0646 21.4243 12.0646 22.2129C12.0646 22.7425 11.9238 23.2269 11.6421 23.6663C11.3717 24.0945 10.9718 24.4381 10.4422 24.6972C9.92397 24.9451 9.29304 25.069 8.54944 25.069ZM13.845 14.5572C13.4506 14.5572 13.1239 14.4277 12.8648 14.1685C12.6169 13.9094 12.493 13.5996 12.493 13.239C12.493 12.8785 12.6169 12.5687 12.8648 12.3095C13.1239 12.0504 13.4506 11.9208 13.845 11.9208C14.2393 11.9208 14.566 12.0504 14.8252 12.3095C15.0843 12.5687 15.2139 12.8785 15.2139 13.239C15.2139 13.5996 15.0843 13.9094 14.8252 14.1685C14.566 14.4277 14.2393 14.5572 13.845 14.5572ZM12.7296 24.9V15.943H14.9773V24.9H12.7296ZM15.9601 24.9V15.943H18.2078V17.1936H18.2923C18.405 16.9908 18.5627 16.7824 18.7655 16.5683C18.9683 16.343 19.2274 16.1571 19.5429 16.0106C19.8696 15.8529 20.2696 15.774 20.7428 15.774C21.4075 15.774 21.954 15.9318 22.3821 16.2472C22.8102 16.5627 23.1257 16.9683 23.3285 17.464H23.3623C23.5876 17.0359 23.92 16.6472 24.3594 16.2979C24.8101 15.9487 25.4072 15.774 26.1508 15.774C26.7817 15.774 27.3056 15.9205 27.7225 16.2134C28.1506 16.4951 28.4661 16.8782 28.6689 17.3626C28.883 17.8471 28.99 18.371 28.99 18.9343V24.9H26.7423V19.4075C26.7423 18.8893 26.6127 18.4668 26.3536 18.14C26.1057 17.802 25.7339 17.633 25.2382 17.633C24.8439 17.633 24.5228 17.7401 24.2749 17.9541C24.0383 18.1569 23.8637 18.4161 23.751 18.7315C23.6496 19.047 23.5989 19.3681 23.5989 19.6948V24.9H21.3512V19.4075C21.3512 18.8893 21.2273 18.4668 20.9794 18.14C20.7315 17.802 20.3541 17.633 19.8471 17.633C19.4528 17.633 19.1317 17.7401 18.8838 17.9541C18.6472 18.1569 18.4726 18.4217 18.3599 18.7484C18.2585 19.0639 18.2078 19.3794 18.2078 19.6948V24.9H15.9601ZM34.1213 25.069C33.1411 25.069 32.3073 24.8493 31.6201 24.4099C30.9328 23.9705 30.4089 23.4016 30.0484 22.703C29.6991 21.9932 29.5245 21.2327 29.5245 20.4215C29.5245 19.6103 29.6991 18.8555 30.0484 18.1569C30.4089 17.4471 30.9328 16.8725 31.6201 16.4331C32.3073 15.9937 33.1411 15.774 34.1213 15.774C35.1127 15.774 35.9465 15.9937 36.6225 16.4331C37.3097 16.8725 37.828 17.4471 38.1773 18.1569C38.5378 18.8555 38.7181 19.6103 38.7181 20.4215C38.7181 21.2327 38.5378 21.9932 38.1773 22.703C37.828 23.4016 37.3097 23.9705 36.6225 24.4099C35.9465 24.8493 35.1127 25.069 34.1213 25.069ZM34.1213 23.1931C34.6283 23.1931 35.0508 23.0636 35.3888 22.8044C35.738 22.5453 36.0028 22.2073 36.1831 21.7904C36.3633 21.3623 36.4535 20.906 36.4535 20.4215C36.4535 19.9258 36.3633 19.4695 36.1831 19.0526C36.0028 18.6358 35.738 18.2978 35.3888 18.0386C35.0508 17.7795 34.6283 17.6499 34.1213 17.6499C33.6255 17.6499 33.203 17.7795 32.8538 18.0386C32.5045 18.2978 32.2397 18.6358 32.0595 19.0526C31.8792 19.4695 31.7891 19.9258 31.7891 20.4215C31.7891 20.906 31.8792 21.3623 32.0595 21.7904C32.2397 22.2073 32.5045 22.5453 32.8538 22.8044C33.203 23.0636 33.6255 23.1931 34.1213 23.1931ZM39.2662 24.9V15.943H41.5139V17.2274H41.6153C41.7055 17.0697 41.8463 16.8782 42.0378 16.6528C42.2294 16.4162 42.4941 16.2134 42.8321 16.0444C43.1701 15.8642 43.5983 15.774 44.1165 15.774C44.8038 15.774 45.3671 15.9318 45.8065 16.2472C46.2572 16.5514 46.5896 16.957 46.8036 17.464C47.029 17.971 47.1416 18.5175 47.1416 19.1033V24.9H44.8939V19.4075C44.8939 18.9231 44.7587 18.5062 44.4883 18.1569C44.2179 17.8077 43.8123 17.633 43.2715 17.633C42.8547 17.633 42.5167 17.7401 42.2575 17.9541C41.9984 18.1569 41.8069 18.4217 41.6829 18.7484C41.5703 19.0752 41.5139 19.4188 41.5139 19.7793V24.9H39.2662ZM50.5945 24.9L50.6114 12.056H52.8422V24.9H50.5945ZM57.5309 15.774C58.1055 15.774 58.5787 15.8698 58.9505 16.0613C59.3223 16.2416 59.6153 16.4444 59.8293 16.6697C60.0434 16.8838 60.1899 17.0584 60.2687 17.1936H60.3701V15.943H62.6178V24.9H60.3701V23.6494H60.2687C60.1899 23.7846 60.0434 23.9649 59.8293 24.1902C59.6153 24.4156 59.3223 24.6184 58.9505 24.7986C58.5787 24.9789 58.1055 25.069 57.5309 25.069C56.8662 25.069 56.286 24.9395 55.7902 24.6803C55.2945 24.4099 54.8776 24.055 54.5396 23.6156C54.2129 23.165 53.965 22.6636 53.796 22.1115C53.6383 21.5595 53.5594 20.9961 53.5594 20.4215C53.5594 19.8469 53.6383 19.2836 53.796 18.7315C53.965 18.1795 54.2129 17.6837 54.5396 17.2443C54.8776 16.7937 55.2945 16.4388 55.7902 16.1796C56.286 15.9092 56.8662 15.774 57.5309 15.774ZM58.1224 17.6161C57.6154 17.6161 57.1873 17.757 56.838 18.0386C56.5 18.309 56.2465 18.6583 56.0775 19.0864C55.9085 19.5146 55.824 19.9596 55.824 20.4215C55.824 20.8835 55.9085 21.3285 56.0775 21.7566C56.2465 22.1848 56.5 22.5397 56.838 22.8213C57.1873 23.0917 57.6154 23.2269 58.1224 23.2269C58.6294 23.2269 59.0519 23.0917 59.3899 22.8213C59.7279 22.5397 59.9814 22.1848 60.1504 21.7566C60.3194 21.3285 60.4039 20.8835 60.4039 20.4215C60.4039 19.9596 60.3194 19.5146 60.1504 19.0864C59.9814 18.6583 59.7279 18.309 59.3899 18.0386C59.0519 17.757 58.6294 17.6161 58.1224 17.6161ZM66.9838 25.069C66.2515 25.069 65.6487 24.9733 65.1755 24.7817C64.7023 24.5789 64.3249 24.3311 64.0432 24.0381C63.7728 23.7339 63.57 23.4354 63.4348 23.1424C63.2996 22.8495 63.2095 22.6073 63.1644 22.4157C63.1306 22.2129 63.1137 22.1115 63.1137 22.1115H65.2431C65.2431 22.1115 65.26 22.1735 65.2938 22.2974C65.3389 22.4214 65.4178 22.5678 65.5304 22.7368C65.6544 22.8946 65.8403 23.0354 66.0881 23.1593C66.336 23.2833 66.6627 23.3452 67.0683 23.3452C67.5528 23.3452 67.9021 23.2438 68.1161 23.041C68.3302 22.827 68.4372 22.5904 68.4372 22.3312C68.4372 22.0834 68.3415 21.8862 68.1499 21.7397C67.9697 21.582 67.6993 21.4637 67.3387 21.3848L66.105 21.1313C65.6093 21.0299 65.1474 20.8835 64.7192 20.6919C64.2911 20.4891 63.9418 20.2187 63.6714 19.8807C63.401 19.5315 63.2658 19.0864 63.2658 18.5456C63.2658 17.7457 63.57 17.0866 64.1784 16.5683C64.7868 16.0388 65.6149 15.774 66.6627 15.774C67.3275 15.774 67.8739 15.8642 68.302 16.0444C68.7414 16.2247 69.0907 16.45 69.3498 16.7204C69.6202 16.9908 69.8174 17.2612 69.9413 17.5316C70.0765 17.802 70.161 18.033 70.1948 18.2245C70.2399 18.4048 70.2624 18.4949 70.2624 18.4949H68.2006C68.2006 18.4949 68.1837 18.4442 68.1499 18.3428C68.1161 18.2302 68.0429 18.1062 67.9302 17.971C67.8288 17.8358 67.6711 17.7175 67.457 17.6161C67.2542 17.5035 66.9782 17.4471 66.6289 17.4471C66.1557 17.4471 65.8177 17.5485 65.6149 17.7513C65.4234 17.9541 65.3276 18.1682 65.3276 18.3935C65.3276 18.6414 65.4347 18.8329 65.6487 18.9681C65.8628 19.1033 66.1388 19.2047 66.4768 19.2723L67.6429 19.5258C68.4767 19.6948 69.1583 19.9878 69.6878 20.4046C70.2286 20.8215 70.499 21.4243 70.499 22.2129C70.499 22.7425 70.3582 23.2269 70.0765 23.6663C69.8061 24.0945 69.4062 24.4381 68.8766 24.6972C68.3584 24.9451 67.7274 25.069 66.9838 25.069ZM71.0303 24.9V12.056H73.278V19.492L76.4383 15.943H79.0916L75.3736 20.0328L79.2099 24.9H76.5228L73.278 20.7764V24.9H71.0303ZM83.1471 25.069C82.1669 25.069 81.3332 24.8493 80.6459 24.4099C79.9586 23.9705 79.4347 23.4016 79.0742 22.703C78.7249 21.9932 78.5503 21.2327 78.5503 20.4215C78.5503 19.6103 78.7249 18.8555 79.0742 18.1569C79.4347 17.4471 79.9586 16.8725 80.6459 16.4331C81.3332 15.9937 82.1669 15.774 83.1471 15.774C84.1386 15.774 84.9723 15.9937 85.6483 16.4331C86.3356 16.8725 86.8538 17.4471 87.2031 18.1569C87.5636 18.8555 87.7439 19.6103 87.7439 20.4215C87.7439 21.2327 87.5636 21.9932 87.2031 22.703C86.8538 23.4016 86.3356 23.9705 85.6483 24.4099C84.9723 24.8493 84.1386 25.069 83.1471 25.069ZM83.1471 23.1931C83.6541 23.1931 84.0766 23.0636 84.4146 22.8044C84.7639 22.5453 85.0286 22.2073 85.2089 21.7904C85.3892 21.3623 85.4793 20.906 85.4793 20.4215C85.4793 19.9258 85.3892 19.4695 85.2089 19.0526C85.0286 18.6358 84.7639 18.2978 84.4146 18.0386C84.0766 17.7795 83.6541 17.6499 83.1471 17.6499C82.6514 17.6499 82.2289 17.7795 81.8796 18.0386C81.5303 18.2978 81.2656 18.6358 81.0853 19.0526C80.905 19.4695 80.8149 19.9258 80.8149 20.4215C80.8149 20.906 80.905 21.3623 81.0853 21.7904C81.2656 22.2073 81.5303 22.5453 81.8796 22.8044C82.2289 23.0636 82.6514 23.1931 83.1471 23.1931ZM90.1594 24.9L87.354 15.943H89.6017L91.3931 22.0946L93.3028 15.943H95.3477L97.2574 22.0946L99.0488 15.943H101.297L98.4742 24.9H96.0913L94.3337 19.2047L92.5592 24.9H90.1594ZM104.767 25.069C104.034 25.069 103.431 24.9733 102.958 24.7817C102.485 24.5789 102.108 24.3311 101.826 24.0381C101.556 23.7339 101.353 23.4354 101.218 23.1424C101.082 22.8495 100.992 22.6073 100.947 22.4157C100.913 22.2129 100.896 22.1115 100.896 22.1115H103.026C103.026 22.1115 103.043 22.1735 103.077 22.2974C103.122 22.4214 103.2 22.5678 103.313 22.7368C103.437 22.8946 103.623 23.0354 103.871 23.1593C104.119 23.2833 104.445 23.3452 104.851 23.3452C105.336 23.3452 105.685 23.2438 105.899 23.041C106.113 22.827 106.22 22.5904 106.22 22.3312C106.22 22.0834 106.124 21.8862 105.933 21.7397C105.752 21.582 105.482 21.4637 105.121 21.3848L103.888 21.1313C103.392 21.0299 102.93 20.8835 102.502 20.6919C102.074 20.4891 101.725 20.2187 101.454 19.8807C101.184 19.5315 101.049 19.0864 101.049 18.5456C101.049 17.7457 101.353 17.0866 101.961 16.5683C102.57 16.0388 103.398 15.774 104.445 15.774C105.11 15.774 105.657 15.8642 106.085 16.0444C106.524 16.2247 106.873 16.45 107.133 16.7204C107.403 16.9908 107.6 17.2612 107.724 17.5316C107.859 17.802 107.944 18.033 107.978 18.2245C108.023 18.4048 108.045 18.4949 108.045 18.4949H105.983C105.983 18.4949 105.966 18.4442 105.933 18.3428C105.899 18.2302 105.826 18.1062 105.713 17.971C105.612 17.8358 105.454 17.7175 105.24 17.6161C105.037 17.5035 104.761 17.4471 104.412 17.4471C103.938 17.4471 103.6 17.5485 103.398 17.7513C103.206 17.9541 103.11 18.1682 103.11 18.3935C103.11 18.6414 103.217 18.8329 103.431 18.9681C103.646 19.1033 103.922 19.2047 104.26 19.2723L105.426 19.5258C106.259 19.6948 106.941 19.9878 107.471 20.4046C108.011 20.8215 108.282 21.4243 108.282 22.2129C108.282 22.7425 108.141 23.2269 107.859 23.6663C107.589 24.0945 107.189 24.4381 106.659 24.6972C106.141 24.9451 105.51 25.069 104.767 25.069ZM108.813 24.9V12.056H111.061V19.492L114.221 15.943H116.874L113.156 20.0328L116.993 24.9H114.306L111.061 20.7764V24.9H108.813ZM117.77 28.1955C117.477 28.1955 117.235 28.1843 117.043 28.1617C116.863 28.1392 116.773 28.1279 116.773 28.1279V26.2858C116.773 26.2858 116.857 26.2915 117.026 26.3027C117.195 26.3253 117.392 26.3365 117.618 26.3365C118.192 26.3365 118.665 26.2408 119.037 26.0492C119.42 25.869 119.741 25.5253 120.001 25.0183L116.637 15.943H118.919L121.167 22.3312L123.381 15.943H125.662L122.383 24.6803C121.933 25.8746 121.353 26.759 120.643 27.3336C119.933 27.9082 118.975 28.1955 117.77 28.1955Z" fill="#FAF4E6"/>
</svg>
