<svg width="130" height="39" viewBox="0 0 130 39" fill="none" xmlns="http://www.w3.org/2000/svg">
<g clip-path="url(#clip0_1_2)">
<path d="M50.5953 27.1954L50.6122 14.3514H52.843V27.1954H50.5953Z" fill="#202020"/>
<path d="M8.54946 24.7777C7.81712 24.7777 7.21436 24.6819 6.74116 24.4904C6.26796 24.2876 5.89052 24.0397 5.60886 23.7468C5.33846 23.4426 5.13566 23.144 5.00046 22.8511C4.86526 22.5582 4.77512 22.3159 4.73006 22.1244C4.69626 21.9216 4.67936 21.8202 4.67936 21.8202H6.80876C6.80876 21.8202 6.82566 21.8822 6.85946 22.0061C6.90452 22.13 6.98339 22.2765 7.09606 22.4455C7.21999 22.6032 7.40589 22.7441 7.65376 22.868C7.90162 22.9919 8.22836 23.0539 8.63396 23.0539C9.11842 23.0539 9.46769 22.9525 9.68176 22.7497C9.89582 22.5356 10.0029 22.299 10.0029 22.0399C10.0029 21.792 9.90709 21.5949 9.71556 21.4484C9.53529 21.2907 9.26489 21.1724 8.90436 21.0935L7.67066 20.84C7.17492 20.7386 6.71299 20.5921 6.28486 20.4006C5.85672 20.1978 5.50746 19.9274 5.23706 19.5894C4.96666 19.2401 4.83146 18.7951 4.83146 18.2543C4.83146 17.4544 5.13566 16.7953 5.74406 16.277C6.35246 15.7475 7.18056 15.4827 8.22835 15.4827C8.89309 15.4827 9.43952 15.5728 9.86765 15.7531C10.3071 15.9334 10.6563 16.1587 10.9155 16.4291C11.1859 16.6995 11.383 16.9699 11.507 17.2403C11.6422 17.5107 11.7267 17.7417 11.7605 17.9332C11.8055 18.1135 11.8281 18.2036 11.8281 18.2036H9.76626C9.76626 18.2036 9.74936 18.1529 9.71556 18.0515C9.68176 17.9388 9.60852 17.8149 9.49586 17.6797C9.39446 17.5445 9.23672 17.4262 9.02266 17.3248C8.81986 17.2121 8.54382 17.1558 8.19456 17.1558C7.72136 17.1558 7.38336 17.2572 7.18056 17.46C6.98902 17.6628 6.89326 17.8769 6.89326 18.1022C6.89326 18.3501 7.00029 18.5416 7.21436 18.6768C7.42842 18.812 7.70446 18.9134 8.04246 18.981L9.20856 19.2345C10.0423 19.4035 10.7239 19.6964 11.2535 20.1133C11.7943 20.5302 12.0647 21.1329 12.0647 21.9216C12.0647 22.4511 11.9238 22.9356 11.6422 23.375C11.3718 23.8031 10.9718 24.1468 10.4423 24.4059C9.92399 24.6538 9.29306 24.7777 8.54946 24.7777ZM13.845 14.2659C13.4506 14.2659 13.1239 14.1363 12.8648 13.8772C12.6169 13.6181 12.493 13.3082 12.493 12.9477C12.493 12.5872 12.6169 12.2773 12.8648 12.0182C13.1239 11.7591 13.4506 11.6295 13.845 11.6295C14.2393 11.6295 14.566 11.7591 14.8252 12.0182C15.0843 12.2773 15.2139 12.5872 15.2139 12.9477C15.2139 13.3082 15.0843 13.6181 14.8252 13.8772C14.566 14.1363 14.2393 14.2659 13.845 14.2659ZM12.7296 24.6087V15.6517H14.9773V24.6087H12.7296ZM15.9601 24.6087V15.6517H18.2078V16.9023H18.2923C18.405 16.6995 18.5627 16.4911 18.7655 16.277C18.9683 16.0517 19.2274 15.8658 19.5429 15.7193C19.8696 15.5616 20.2696 15.4827 20.7428 15.4827C21.4075 15.4827 21.954 15.6404 22.3821 15.9559C22.8102 16.2714 23.1257 16.677 23.3285 17.1727H23.3623C23.5876 16.7446 23.92 16.3559 24.3594 16.0066C24.8101 15.6573 25.4072 15.4827 26.1508 15.4827C26.7817 15.4827 27.3056 15.6292 27.7225 15.9221C28.1506 16.2038 28.4661 16.5868 28.6689 17.0713C28.883 17.5558 28.99 18.0797 28.99 18.643V24.6087H26.7423V19.1162C26.7423 18.5979 26.6127 18.1754 26.3536 17.8487C26.1057 17.5107 25.7339 17.3417 25.2382 17.3417C24.8439 17.3417 24.5228 17.4487 24.2749 17.6628C24.0383 17.8656 23.8637 18.1247 23.751 18.4402C23.6496 18.7557 23.5989 19.0768 23.5989 19.4035V24.6087H21.3512V19.1162C21.3512 18.5979 21.2273 18.1754 20.9794 17.8487C20.7315 17.5107 20.3541 17.3417 19.8471 17.3417C19.4528 17.3417 19.1317 17.4487 18.8838 17.6628C18.6472 17.8656 18.4726 18.1304 18.3599 18.4571C18.2585 18.7726 18.2078 19.088 18.2078 19.4035V24.6087H15.9601ZM34.1213 24.7777C33.1411 24.7777 32.3073 24.558 31.6201 24.1186C30.9328 23.6792 30.4089 23.1102 30.0484 22.4117C29.6991 21.7019 29.5245 20.9414 29.5245 20.1302C29.5245 19.319 29.6991 18.5641 30.0484 17.8656C30.4089 17.1558 30.9328 16.5812 31.6201 16.1418C32.3073 15.7024 33.1411 15.4827 34.1213 15.4827C35.1127 15.4827 35.9465 15.7024 36.6225 16.1418C37.3097 16.5812 37.828 17.1558 38.1773 17.8656C38.5378 18.5641 38.7181 19.319 38.7181 20.1302C38.7181 20.9414 38.5378 21.7019 38.1773 22.4117C37.828 23.1102 37.3097 23.6792 36.6225 24.1186C35.9465 24.558 35.1127 24.7777 34.1213 24.7777ZM34.1213 22.9018C34.6283 22.9018 35.0508 22.7722 35.3888 22.5131C35.738 22.254 36.0028 21.916 36.1831 21.4991C36.3633 21.071 36.4535 20.6147 36.4535 20.1302C36.4535 19.6345 36.3633 19.1782 36.1831 18.7613C36.0028 18.3444 35.738 18.0064 35.3888 17.7473C35.0508 17.4882 34.6283 17.3586 34.1213 17.3586C33.6255 17.3586 33.203 17.4882 32.8538 17.7473C32.5045 18.0064 32.2397 18.3444 32.0595 18.7613C31.8792 19.1782 31.7891 19.6345 31.7891 20.1302C31.7891 20.6147 31.8792 21.071 32.0595 21.4991C32.2397 21.916 32.5045 22.254 32.8538 22.5131C33.203 22.7722 33.6255 22.9018 34.1213 22.9018ZM39.2663 24.6087V15.6517H41.514V16.9361H41.6154C41.7055 16.7784 41.8463 16.5868 42.0379 16.3615C42.2294 16.1249 42.4942 15.9221 42.8322 15.7531C43.1702 15.5728 43.5983 15.4827 44.1166 15.4827C44.8038 15.4827 45.3672 15.6404 45.8066 15.9559C46.2572 16.2601 46.5896 16.6657 46.8037 17.1727C47.029 17.6797 47.1417 18.2261 47.1417 18.812V24.6087H44.894V19.1162C44.894 18.6317 44.7588 18.2149 44.4884 17.8656C44.218 17.5163 43.8124 17.3417 43.2716 17.3417C42.8547 17.3417 42.5167 17.4487 42.2576 17.6628C41.9984 17.8656 41.8069 18.1304 41.683 18.4571C41.5703 18.7838 41.514 19.1275 41.514 19.488V24.6087H39.2663ZM50.5945 24.6087L50.6114 11.7647H52.8422V24.6087H50.5945ZM57.5309 15.4827C58.1055 15.4827 58.5787 15.5785 58.9505 15.77C59.3223 15.9503 59.6153 16.1531 59.8293 16.3784C60.0434 16.5925 60.1899 16.7671 60.2687 16.9023H60.3701V15.6517H62.6178V24.6087H60.3701V23.3581H60.2687C60.1899 23.4933 60.0434 23.6736 59.8293 23.8989C59.6153 24.1242 59.3223 24.327 58.9505 24.5073C58.5787 24.6876 58.1055 24.7777 57.5309 24.7777C56.8662 24.7777 56.286 24.6481 55.7902 24.389C55.2945 24.1186 54.8776 23.7637 54.5396 23.3243C54.2129 22.8736 53.965 22.3723 53.796 21.8202C53.6383 21.2681 53.5594 20.7048 53.5594 20.1302C53.5594 19.5556 53.6383 18.9923 53.796 18.4402C53.965 17.8881 54.2129 17.3924 54.5396 16.953C54.8776 16.5023 55.2945 16.1474 55.7902 15.8883C56.286 15.6179 56.8662 15.4827 57.5309 15.4827ZM58.1224 17.3248C57.6154 17.3248 57.1873 17.4656 56.838 17.7473C56.5 18.0177 56.2465 18.367 56.0775 18.7951C55.9085 19.2232 55.824 19.6683 55.824 20.1302C55.824 20.5921 55.9085 21.0372 56.0775 21.4653C56.2465 21.8934 56.5 22.2483 56.838 22.53C57.1873 22.8004 57.6154 22.9356 58.1224 22.9356C58.6294 22.9356 59.0519 22.8004 59.3899 22.53C59.7279 22.2483 59.9814 21.8934 60.1504 21.4653C60.3194 21.0372 60.4039 20.5921 60.4039 20.1302C60.4039 19.6683 60.3194 19.2232 60.1504 18.7951C59.9814 18.367 59.7279 18.0177 59.3899 17.7473C59.0519 17.4656 58.6294 17.3248 58.1224 17.3248ZM66.9838 24.7777C66.2515 24.7777 65.6487 24.6819 65.1755 24.4904C64.7023 24.2876 64.3249 24.0397 64.0432 23.7468C63.7728 23.4426 63.57 23.144 63.4348 22.8511C63.2996 22.5582 63.2095 22.3159 63.1644 22.1244C63.1306 21.9216 63.1137 21.8202 63.1137 21.8202H65.2431C65.2431 21.8202 65.26 21.8822 65.2938 22.0061C65.3389 22.13 65.4178 22.2765 65.5304 22.4455C65.6544 22.6032 65.8403 22.7441 66.0881 22.868C66.336 22.9919 66.6627 23.0539 67.0683 23.0539C67.5528 23.0539 67.9021 22.9525 68.1161 22.7497C68.3302 22.5356 68.4372 22.299 68.4372 22.0399C68.4372 21.792 68.3415 21.5949 68.1499 21.4484C67.9697 21.2907 67.6993 21.1724 67.3387 21.0935L66.105 20.84C65.6093 20.7386 65.1474 20.5921 64.7192 20.4006C64.2911 20.1978 63.9418 19.9274 63.6714 19.5894C63.401 19.2401 63.2658 18.7951 63.2658 18.2543C63.2658 17.4544 63.57 16.7953 64.1784 16.277C64.7868 15.7475 65.6149 15.4827 66.6627 15.4827C67.3275 15.4827 67.8739 15.5728 68.302 15.7531C68.7414 15.9334 69.0907 16.1587 69.3498 16.4291C69.6202 16.6995 69.8174 16.9699 69.9413 17.2403C70.0765 17.5107 70.161 17.7417 70.1948 17.9332C70.2399 18.1135 70.2624 18.2036 70.2624 18.2036H68.2006C68.2006 18.2036 68.1837 18.1529 68.1499 18.0515C68.1161 17.9388 68.0429 17.8149 67.9302 17.6797C67.8288 17.5445 67.6711 17.4262 67.457 17.3248C67.2542 17.2121 66.9782 17.1558 66.6289 17.1558C66.1557 17.1558 65.8177 17.2572 65.6149 17.46C65.4234 17.6628 65.3276 17.8769 65.3276 18.1022C65.3276 18.3501 65.4347 18.5416 65.6487 18.6768C65.8628 18.812 66.1388 18.9134 66.4768 18.981L67.6429 19.2345C68.4767 19.4035 69.1583 19.6964 69.6878 20.1133C70.2286 20.5302 70.499 21.1329 70.499 21.9216C70.499 22.4511 70.3582 22.9356 70.0765 23.375C69.8061 23.8031 69.4062 24.1468 68.8766 24.4059C68.3584 24.6538 67.7274 24.7777 66.9838 24.7777ZM71.0303 24.6087V11.7647H73.278V19.2007L76.4383 15.6517H79.0916L75.3736 19.7415L79.2099 24.6087H76.5228L73.278 20.4851V24.6087H71.0303ZM83.1471 24.7777C82.1669 24.7777 81.3332 24.558 80.6459 24.1186C79.9586 23.6792 79.4347 23.1102 79.0742 22.4117C78.7249 21.7019 78.5503 20.9414 78.5503 20.1302C78.5503 19.319 78.7249 18.5641 79.0742 17.8656C79.4347 17.1558 79.9586 16.5812 80.6459 16.1418C81.3332 15.7024 82.1669 15.4827 83.1471 15.4827C84.1386 15.4827 84.9723 15.7024 85.6483 16.1418C86.3356 16.5812 86.8538 17.1558 87.2031 17.8656C87.5636 18.5641 87.7439 19.319 87.7439 20.1302C87.7439 20.9414 87.5636 21.7019 87.2031 22.4117C86.8538 23.1102 86.3356 23.6792 85.6483 24.1186C84.9723 24.558 84.1386 24.7777 83.1471 24.7777ZM83.1471 22.9018C83.6541 22.9018 84.0766 22.7722 84.4146 22.5131C84.7639 22.254 85.0286 21.916 85.2089 21.4991C85.3892 21.071 85.4793 20.6147 85.4793 20.1302C85.4793 19.6345 85.3892 19.1782 85.2089 18.7613C85.0286 18.3444 84.7639 18.0064 84.4146 17.7473C84.0766 17.4882 83.6541 17.3586 83.1471 17.3586C82.6514 17.3586 82.2289 17.4882 81.8796 17.7473C81.5303 18.0064 81.2656 18.3444 81.0853 18.7613C80.905 19.1782 80.8149 19.6345 80.8149 20.1302C80.8149 20.6147 80.905 21.071 81.0853 21.4991C81.2656 21.916 81.5303 22.254 81.8796 22.5131C82.2289 22.7722 82.6514 22.9018 83.1471 22.9018ZM90.1594 24.6087L87.354 15.6517H89.6017L91.3931 21.8033L93.3028 15.6517H95.3477L97.2574 21.8033L99.0488 15.6517H101.297L98.4742 24.6087H96.0913L94.3337 18.9134L92.5592 24.6087H90.1594ZM104.767 24.7777C104.034 24.7777 103.431 24.6819 102.958 24.4904C102.485 24.2876 102.108 24.0397 101.826 23.7468C101.556 23.4426 101.353 23.144 101.218 22.8511C101.082 22.5582 100.992 22.3159 100.947 22.1244C100.913 21.9216 100.896 21.8202 100.896 21.8202H103.026C103.026 21.8202 103.043 21.8822 103.077 22.0061C103.122 22.13 103.2 22.2765 103.313 22.4455C103.437 22.6032 103.623 22.7441 103.871 22.868C104.119 22.9919 104.445 23.0539 104.851 23.0539C105.336 23.0539 105.685 22.9525 105.899 22.7497C106.113 22.5356 106.22 22.299 106.22 22.0399C106.22 21.792 106.124 21.5949 105.933 21.4484C105.752 21.2907 105.482 21.1724 105.121 21.0935L103.888 20.84C103.392 20.7386 102.93 20.5921 102.502 20.4006C102.074 20.1978 101.725 19.9274 101.454 19.5894C101.184 19.2401 101.049 18.7951 101.049 18.2543C101.049 17.4544 101.353 16.7953 101.961 16.277C102.57 15.7475 103.398 15.4827 104.445 15.4827C105.11 15.4827 105.657 15.5728 106.085 15.7531C106.524 15.9334 106.873 16.1587 107.133 16.4291C107.403 16.6995 107.6 16.9699 107.724 17.2403C107.859 17.5107 107.944 17.7417 107.978 17.9332C108.023 18.1135 108.045 18.2036 108.045 18.2036H105.983C105.983 18.2036 105.966 18.1529 105.933 18.0515C105.899 17.9388 105.826 17.8149 105.713 17.6797C105.612 17.5445 105.454 17.4262 105.24 17.3248C105.037 17.2121 104.761 17.1558 104.412 17.1558C103.938 17.1558 103.6 17.2572 103.398 17.46C103.206 17.6628 103.11 17.8769 103.11 18.1022C103.11 18.3501 103.217 18.5416 103.431 18.6768C103.646 18.812 103.922 18.9134 104.26 18.981L105.426 19.2345C106.259 19.4035 106.941 19.6964 107.471 20.1133C108.011 20.5302 108.282 21.1329 108.282 21.9216C108.282 22.4511 108.141 22.9356 107.859 23.375C107.589 23.8031 107.189 24.1468 106.659 24.4059C106.141 24.6538 105.51 24.7777 104.767 24.7777ZM108.813 24.6087V11.7647H111.061V19.2007L114.221 15.6517H116.874L113.156 19.7415L116.993 24.6087H114.306L111.061 20.4851V24.6087H108.813ZM117.77 27.9042C117.477 27.9042 117.235 27.8929 117.043 27.8704C116.863 27.8479 116.773 27.8366 116.773 27.8366V25.9945C116.773 25.9945 116.857 26.0001 117.026 26.0114C117.195 26.0339 117.392 26.0452 117.618 26.0452C118.192 26.0452 118.665 25.9494 119.037 25.7579C119.42 25.5776 119.741 25.234 120.001 24.727L116.637 15.6517H118.919L121.167 22.0399L123.381 15.6517H125.662L122.383 24.389C121.933 25.5833 121.353 26.4677 120.643 27.0423C119.933 27.6169 118.975 27.9042 117.77 27.9042Z" fill="#202020"/>
</g>
<defs>
<clipPath id="clip0_1_2">
<rect width="130" height="39" fill="white"/>
</clipPath>
</defs>
</svg>
